<svg width="163" height="163" viewBox="0 0 163 163" fill="none" xmlns="http://www.w3.org/2000/svg">
<path d="M121.46 41.0302C110.789 30.3333 96.5774 24.45 81.4745 24.45C50.3007 24.45 24.9339 49.8169 24.9339 80.9906C24.9339 90.9489 27.5317 100.678 32.4726 109.261L24.45 138.55L54.4267 130.68C62.6785 135.188 71.9746 137.557 81.449 137.557H81.4745C112.623 137.557 138.55 112.19 138.55 81.0161C138.55 65.9131 132.132 51.727 121.46 41.0302ZM81.4745 128.031C73.0189 128.031 64.7415 125.765 57.5339 121.486L55.8274 120.467L38.0503 125.128L42.7875 107.784L41.6668 106.001C36.9551 98.5131 34.4846 89.8792 34.4846 80.9906C34.4846 55.0889 55.5728 34.0008 81.4999 34.0008C94.056 34.0008 105.848 38.8908 114.711 47.7794C123.574 56.668 129.025 68.46 128.999 81.0161C128.999 106.943 107.376 128.031 81.4745 128.031ZM107.249 92.8336C105.848 92.1205 98.8951 88.7077 97.5962 88.2492C96.2973 87.7653 95.355 87.5361 94.4126 88.9623C93.4703 90.3886 90.7706 93.5467 89.9301 94.5145C89.1151 95.4569 88.2746 95.5842 86.8739 94.8711C78.571 90.7197 73.1207 87.4597 67.645 78.0617C66.1932 75.5658 69.0967 75.7441 71.7964 70.3447C72.2548 69.4023 72.0256 68.5873 71.669 67.8742C71.3124 67.1611 68.4854 60.2081 67.3139 57.3811C66.1678 54.6305 64.9962 55.0125 64.1303 54.9616C63.3153 54.9106 62.3729 54.9106 61.4306 54.9106C60.4882 54.9106 58.9601 55.2672 57.6612 56.668C56.3623 58.0942 52.7203 61.507 52.7203 68.46C52.7203 75.413 57.7885 82.1367 58.4762 83.0791C59.1893 84.0214 68.4345 98.2839 82.6206 104.422C91.5856 108.293 95.1003 108.624 99.5828 107.962C102.308 107.555 107.937 104.549 109.108 101.238C110.28 97.9273 110.28 95.1003 109.923 94.5145C109.592 93.8778 108.65 93.5212 107.249 92.8336Z" fill="white"/>
</svg>
